<svg width="153" height="48" viewBox="0 0 153 48" fill="none" xmlns="http://www.w3.org/2000/svg">
<g clip-path="url(#clip0_107_1936)">
<path d="M140.906 0.000156H11.9738C11.5338 0.000156 11.099 0.000156 10.6602 0.002556C10.2928 0.004956 9.92833 0.011928 9.55743 0.017796C8.75164 0.0272782 7.94775 0.0981675 7.15275 0.229848C6.35886 0.364395 5.58983 0.618055 4.87169 0.982248C4.15443 1.34952 3.49904 1.82676 2.92931 2.39664C2.35659 2.96492 1.87918 3.62178 1.51545 4.34195C1.15071 5.06069 0.897795 5.83088 0.765447 6.62593C0.63184 7.41998 0.559945 8.22318 0.550407 9.02833C0.539271 9.39625 0.538095 9.76539 0.532227 10.1334V37.8705C0.538095 38.2431 0.539271 38.604 0.550407 38.9768C0.559948 39.7819 0.631843 40.585 0.765447 41.379C0.89743 42.1745 1.15036 42.9452 1.51545 43.6642C1.87902 44.382 2.35649 45.0362 2.92931 45.6014C3.49688 46.1738 4.15269 46.6513 4.87169 47.0158C5.58983 47.381 6.35877 47.6361 7.15275 47.7728C7.94789 47.9034 8.7517 47.9743 9.55743 47.9849C9.92833 47.9931 10.2928 47.9978 10.6602 47.9978C11.099 48.0002 11.5338 48.0002 11.9738 48.0002H140.906C141.337 48.0002 141.776 48.0002 142.207 47.9978C142.573 47.9978 142.948 47.9931 143.313 47.9849C144.117 47.9749 144.92 47.9039 145.713 47.7728C146.51 47.6352 147.281 47.3801 148.003 47.0158C148.721 46.6511 149.377 46.1736 149.944 45.6014C150.515 45.034 150.993 44.3803 151.362 43.6642C151.724 42.9447 151.974 42.1741 152.104 41.379C152.238 40.5849 152.313 39.7819 152.327 38.9768C152.332 38.604 152.332 38.2431 152.332 37.8705C152.341 37.4345 152.341 37.001 152.341 36.5579V11.4435C152.341 11.0041 152.341 10.5681 152.332 10.1334C152.332 9.76539 152.332 9.39625 152.327 9.02828C152.313 8.22306 152.238 7.42004 152.104 6.62588C151.974 5.83129 151.724 5.06116 151.362 4.3419C150.621 2.89839 149.446 1.72339 148.003 0.98214C147.281 0.618837 146.51 0.365244 145.713 0.22974C144.92 0.0974793 144.117 0.0265653 143.313 0.017628C142.948 0.011772 142.573 0.00474 142.207 0.0024C141.776 0 141.337 0.000156 140.906 0.000156Z" fill="#A6A6A6"/>
<path d="M10.666 46.9501C10.3004 46.9501 9.94361 46.9454 9.58087 46.9372C8.82941 46.9274 8.0797 46.862 7.3379 46.7415C6.64621 46.6224 5.97615 46.4008 5.34981 46.084C4.72922 45.7699 4.1632 45.358 3.67341 44.8641C3.17654 44.376 2.76287 43.8099 2.4488 43.1883C2.13127 42.5626 1.91152 41.8919 1.7972 41.1997C1.67375 40.4558 1.60696 39.7036 1.5974 38.9497C1.58979 38.6966 1.57983 37.8539 1.57983 37.8539V10.1333C1.57983 10.1333 1.59044 9.30357 1.59746 9.05981C1.60661 8.30703 1.67301 7.55603 1.79609 6.81333C1.91062 6.11915 2.13055 5.44655 2.44825 4.8188C2.76117 4.19758 3.17253 3.63108 3.66641 3.14126C4.15974 2.6468 4.72758 2.23278 5.34923 1.9143C5.97412 1.59856 6.64292 1.37853 7.33321 1.26157C8.07745 1.13985 8.82976 1.07404 9.58382 1.0647L10.6666 1.05005H142.201L143.297 1.06529C144.044 1.07417 144.789 1.13939 145.527 1.2604C146.224 1.37882 146.9 1.60039 147.532 1.91782C148.777 2.55963 149.791 3.57505 150.43 4.82173C150.743 5.44514 150.959 6.11226 151.072 6.80044C151.197 7.54924 151.266 8.30614 151.281 9.06509C151.284 9.40493 151.284 9.76997 151.284 10.1333C151.294 10.5833 151.294 11.0116 151.294 11.4434V36.5578C151.294 36.9938 151.294 37.4192 151.284 37.8481C151.284 38.2383 151.284 38.5958 151.28 38.9637C151.266 39.7091 151.197 40.4525 151.074 41.1879C150.962 41.8852 150.744 42.5611 150.426 43.1919C150.11 43.8068 149.699 44.368 149.208 44.8547C148.717 45.3513 148.15 45.7656 147.528 46.0817C146.898 46.4009 146.223 46.6233 145.527 46.7415C144.785 46.8626 144.035 46.9281 143.284 46.9372C142.932 46.9454 142.564 46.9501 142.207 46.9501L140.906 46.9524L10.666 46.9501Z" fill="black"/>
<path d="M30.2582 24.361C30.2711 23.3594 30.5372 22.3774 31.0316 21.5062C31.5261 20.6351 32.2328 19.9032 33.0861 19.3786C32.544 18.6044 31.8289 17.9672 30.9975 17.5178C30.1661 17.0683 29.2414 16.8189 28.2967 16.7893C26.2816 16.5778 24.3281 17.9951 23.3012 17.9951C22.2545 17.9951 20.6735 16.8103 18.971 16.8454C17.8698 16.8809 16.7966 17.2012 15.856 17.7748C14.9153 18.3485 14.1393 19.1561 13.6035 20.1188C11.2827 24.1369 13.0138 30.0422 15.237 33.2901C16.3493 34.8805 17.6492 36.6571 19.3501 36.5941C21.0146 36.525 21.6363 35.5327 23.6454 35.5327C25.6359 35.5327 26.2192 36.5941 27.9546 36.554C29.7407 36.525 30.866 34.9565 31.9392 33.351C32.7384 32.2178 33.3533 30.9653 33.7613 29.64C32.7236 29.2012 31.8381 28.4665 31.2152 27.5278C30.5923 26.589 30.2594 25.4877 30.2582 24.361Z" fill="white"/>
<path d="M26.9803 14.6531C27.9542 13.484 28.4339 11.9814 28.3178 10.4644C26.83 10.6206 25.4557 11.3317 24.4687 12.4559C23.9861 13.0051 23.6165 13.644 23.381 14.3361C23.1455 15.0283 23.0487 15.76 23.0962 16.4896C23.8404 16.4972 24.5766 16.3359 25.2494 16.0178C25.9222 15.6997 26.514 15.2331 26.9803 14.6531Z" fill="white"/>
<path d="M43.3186 17.6421V11.4939H41.0662V10.4819H46.6783V11.4938H44.4306V17.6421H43.3186Z" fill="white"/>
<path d="M51.8498 16.1831C51.7049 16.6769 51.391 17.1041 50.963 17.3899C50.5349 17.6756 50.0201 17.8018 49.5084 17.7463C49.1524 17.7557 48.7986 17.6875 48.4716 17.5465C48.1446 17.4055 47.8522 17.195 47.6147 16.9296C47.3772 16.6642 47.2003 16.3504 47.0963 16.0098C46.9923 15.6692 46.9636 15.31 47.0123 14.9573C46.9649 14.6034 46.9941 14.2435 47.0979 13.9019C47.2016 13.5603 47.3776 13.245 47.6139 12.9773C47.8501 12.7096 48.1411 12.4958 48.4671 12.3503C48.7932 12.2049 49.1467 12.1312 49.5037 12.1342C51.0072 12.1342 51.9143 13.1614 51.9143 14.8582V15.2303H48.0986V15.29C48.0819 15.4883 48.1069 15.6879 48.1718 15.876C48.2367 16.0641 48.3403 16.2366 48.4758 16.3823C48.6113 16.5281 48.7757 16.6439 48.9586 16.7224C49.1415 16.8009 49.3387 16.8403 49.5377 16.838C49.7928 16.8687 50.0512 16.8227 50.2801 16.7061C50.509 16.5894 50.6981 16.4074 50.8232 16.183L51.8498 16.1831ZM48.0986 14.4416H50.8279C50.8414 14.2603 50.8167 14.0781 50.7556 13.9069C50.6944 13.7356 50.5981 13.579 50.4729 13.4472C50.3476 13.3154 50.1962 13.2112 50.0282 13.1414C49.8603 13.0716 49.6797 13.0377 49.4979 13.0418C49.3134 13.0395 49.1304 13.0742 48.9595 13.1437C48.7887 13.2132 48.6335 13.3162 48.5031 13.4467C48.3727 13.5772 48.2697 13.7324 48.2002 13.9033C48.1308 14.0742 48.0962 14.2572 48.0986 14.4416ZM48.8627 11.335L50.1084 9.62817H51.3588L49.9643 11.335H48.8627Z" fill="white"/>
<path d="M53.3955 10.1292H54.4619V17.642H53.3955V10.1292Z" fill="white"/>
<path d="M60.7817 16.1831C60.6368 16.6769 60.3229 17.1041 59.8949 17.3899C59.4668 17.6756 58.9519 17.8018 58.4403 17.7463C58.0843 17.7557 57.7305 17.6875 57.4035 17.5465C57.0765 17.4055 56.7841 17.195 56.5466 16.9296C56.3091 16.6642 56.1322 16.3504 56.0282 16.0098C55.9242 15.6692 55.8955 15.31 55.9442 14.9573C55.8968 14.6034 55.926 14.2435 56.0297 13.9019C56.1335 13.5603 56.3095 13.245 56.5457 12.9773C56.782 12.7096 57.073 12.4958 57.399 12.3503C57.7251 12.2049 58.0786 12.1312 58.4356 12.1342C59.9391 12.1342 60.8461 13.1614 60.8461 14.8582V15.2303H57.0305V15.29C57.0138 15.4883 57.0387 15.6879 57.1037 15.876C57.1686 16.0641 57.2721 16.2366 57.4076 16.3823C57.5431 16.5281 57.7076 16.6439 57.8904 16.7224C58.0733 16.8009 58.2706 16.8403 58.4696 16.838C58.7246 16.8687 58.9831 16.8227 59.212 16.7061C59.4409 16.5894 59.63 16.4074 59.7551 16.183L60.7817 16.1831ZM57.0305 14.4416H59.7598C59.7732 14.2603 59.7486 14.0781 59.6874 13.9069C59.6263 13.7356 59.53 13.579 59.4047 13.4472C59.2795 13.3154 59.128 13.2112 58.9601 13.1414C58.7922 13.0716 58.6115 13.0377 58.4297 13.0418C58.2453 13.0395 58.0622 13.0742 57.8914 13.1437C57.7205 13.2132 57.5653 13.3163 57.4349 13.4467C57.3045 13.5772 57.2016 13.7324 57.1321 13.9033C57.0626 14.0742 57.0281 14.2572 57.0305 14.4416ZM57.7946 11.335L59.0403 9.62817H60.2907L58.8962 11.335H57.7946Z" fill="white"/>
<path d="M65.8162 14.0045C65.7482 13.7243 65.5821 13.4777 65.348 13.3094C65.1139 13.1411 64.8273 13.0622 64.54 13.0869C63.6471 13.0869 63.101 13.7713 63.101 14.9227C63.101 16.094 63.6518 16.7936 64.54 16.7936C64.8245 16.8265 65.1111 16.7544 65.3461 16.5909C65.5812 16.4273 65.7483 16.1835 65.8162 15.9053H66.8533C66.7847 16.4525 66.5051 16.9512 66.074 17.2951C65.643 17.639 65.0946 17.8009 64.5459 17.7463C64.1846 17.7577 63.8251 17.6901 63.4927 17.548C63.1603 17.406 62.8629 17.1931 62.6214 16.9242C62.3798 16.6552 62.2 16.3368 62.0944 15.9911C61.9887 15.6453 61.9599 15.2807 62.01 14.9227C61.9625 14.5673 61.9931 14.2059 62.0997 13.8636C62.2064 13.5213 62.3864 13.2064 62.6273 12.9408C62.8683 12.6753 63.1642 12.4656 63.4946 12.3263C63.8249 12.1869 64.1817 12.1214 64.54 12.1342C65.0933 12.0833 65.6445 12.2502 66.0766 12.5995C66.5086 12.9488 66.7873 13.4529 66.8533 14.0045L65.8162 14.0045Z" fill="white"/>
<path d="M68.2689 10.1292H69.3259V13.1069H69.4103C69.552 12.7957 69.7863 12.5358 70.0811 12.3626C70.376 12.1894 70.717 12.1113 71.0579 12.1389C71.3194 12.1247 71.5809 12.1684 71.8236 12.2668C72.0664 12.3653 72.2844 12.5161 72.4621 12.7085C72.6399 12.9009 72.7729 13.1301 72.8519 13.3799C72.9308 13.6297 72.9537 13.8938 72.9188 14.1534V17.6421H71.8512V14.4165C71.8512 13.5534 71.4492 13.1163 70.6957 13.1163C70.5125 13.1012 70.3281 13.1264 70.1556 13.1901C69.983 13.2537 69.8265 13.3543 69.6969 13.4848C69.5673 13.6153 69.4678 13.7725 69.4053 13.9455C69.3428 14.1185 69.3189 14.303 69.3352 14.4862V17.642H68.2688L68.2689 10.1292Z" fill="white"/>
<path d="M74.2595 16.114C74.2595 15.1413 74.9837 14.5806 76.2693 14.5009L77.733 14.4165V13.9501C77.733 13.3794 77.3556 13.0571 76.6267 13.0571C76.0314 13.0571 75.6189 13.2757 75.5005 13.6577H74.4681C74.5771 12.7296 75.4501 12.1343 76.6759 12.1343C78.0306 12.1343 78.7941 12.8087 78.7941 13.9501V17.6421H77.7681V16.8827H77.6838C77.5125 17.1551 77.272 17.3772 76.9869 17.5262C76.7017 17.6753 76.3821 17.746 76.0607 17.7311C75.8339 17.7547 75.6046 17.7305 75.3877 17.6601C75.1708 17.5896 74.971 17.4745 74.8013 17.3222C74.6316 17.1698 74.4957 16.9836 74.4024 16.7755C74.3091 16.5674 74.2604 16.342 74.2595 16.114ZM77.733 15.6522V15.2005L76.4134 15.2849C75.6693 15.3347 75.3318 15.5878 75.3318 16.0642C75.3318 16.5505 75.7537 16.8335 76.3338 16.8335C76.5038 16.8507 76.6755 16.8335 76.8387 16.783C77.0019 16.7325 77.1532 16.6497 77.2838 16.5395C77.4143 16.4293 77.5214 16.2939 77.5985 16.1415C77.6757 15.9891 77.7214 15.8227 77.733 15.6522Z" fill="white"/>
<path d="M80.4641 12.2387H81.4907V13.0672H81.5704C81.6853 12.7796 81.8884 12.5358 82.1505 12.3709C82.4127 12.2059 82.7203 12.1282 83.0293 12.1491C83.1891 12.1469 83.3486 12.1618 83.5051 12.1936V13.246C83.3094 13.2042 83.1099 13.1826 82.9098 13.1815C82.7339 13.1658 82.5567 13.1869 82.3895 13.2437C82.2223 13.3005 82.0688 13.3916 81.9389 13.5113C81.809 13.6309 81.7055 13.7764 81.6352 13.9384C81.5649 14.1003 81.5292 14.2753 81.5305 14.4518V17.6423H80.4641L80.4641 12.2387Z" fill="white"/>
<path d="M84.486 18.1828H85.577C85.6673 18.5748 86.1184 18.8279 86.8379 18.8279C87.7262 18.8279 88.2524 18.4061 88.2524 17.6918V16.6547H88.1727C88.0054 16.945 87.7612 17.1834 87.4669 17.3436C87.1726 17.5038 86.8397 17.5795 86.5051 17.5623C85.1258 17.5623 84.2727 16.4959 84.2727 14.8781C84.2727 13.2305 85.1352 12.1488 86.5157 12.1488C86.8587 12.1369 87.1983 12.2194 87.4976 12.3875C87.7969 12.5555 88.0442 12.8025 88.2125 13.1016H88.2969V12.2385H89.3188V17.6865C89.3188 18.9222 88.3508 19.7062 86.8227 19.7062C85.4727 19.7063 84.5997 19.101 84.486 18.1828ZM88.2723 14.8729C88.2723 13.7965 87.7157 13.1068 86.8075 13.1068C85.8899 13.1068 85.3743 13.7965 85.3743 14.8729C85.3743 15.9498 85.8899 16.6395 86.8075 16.6395C87.7215 16.6395 88.2723 15.9551 88.2723 14.8729Z" fill="white"/>
<path d="M95.5871 16.183C95.4422 16.6768 95.1283 17.104 94.7003 17.3898C94.2722 17.6755 93.7574 17.8017 93.2457 17.7462C92.8897 17.7556 92.5359 17.6874 92.2089 17.5464C91.8819 17.4054 91.5895 17.1949 91.352 16.9295C91.1145 16.6641 90.9376 16.3503 90.8336 16.0097C90.7296 15.6691 90.7009 15.3099 90.7496 14.9572C90.7022 14.6033 90.7314 14.2434 90.8352 13.9018C90.9389 13.5602 91.1149 13.2449 91.3512 12.9772C91.5874 12.7095 91.8784 12.4957 92.2044 12.3502C92.5305 12.2048 92.884 12.1311 93.241 12.1341C94.7445 12.1341 95.6516 13.1613 95.6516 14.8581V15.2302H91.8359V15.29C91.8192 15.4883 91.8442 15.6878 91.9091 15.8759C91.9741 16.064 92.0776 16.2365 92.2131 16.3822C92.3486 16.528 92.513 16.6438 92.6959 16.7223C92.8788 16.8008 93.076 16.8402 93.275 16.838C93.5301 16.8686 93.7885 16.8226 94.0174 16.706C94.2464 16.5894 94.4354 16.4073 94.5606 16.1829L95.5871 16.183ZM91.8359 14.4416H94.5652C94.5786 14.2602 94.554 14.078 94.4929 13.9068C94.4317 13.7355 94.3354 13.5789 94.2101 13.4471C94.0849 13.3153 93.9334 13.2111 93.7655 13.1413C93.5976 13.0715 93.4169 13.0376 93.2351 13.0418C93.0507 13.0394 92.8676 13.0741 92.6968 13.1436C92.526 13.2131 92.3708 13.3162 92.2404 13.4466C92.11 13.5771 92.007 13.7323 91.9376 13.9032C91.8681 14.0741 91.8335 14.2571 91.8359 14.4416Z" fill="white"/>
<path d="M97.0837 12.2387H98.1104V13.0672H98.1901C98.305 12.7796 98.5081 12.5358 98.7702 12.3709C99.0324 12.2059 99.34 12.1282 99.649 12.1491C99.8088 12.1469 99.9683 12.1618 100.125 12.1936V13.246C99.9291 13.2042 99.7296 13.1826 99.5295 13.1815C99.3536 13.1657 99.1764 13.1869 99.0091 13.2437C98.8419 13.3005 98.6884 13.3916 98.5585 13.5112C98.4286 13.6309 98.3252 13.7763 98.2548 13.9383C98.1845 14.1003 98.1489 14.2752 98.1501 14.4518V17.6423H97.0837V12.2387Z" fill="white"/>
<path d="M103.967 14.9379C103.967 13.2305 104.845 12.1489 106.21 12.1489C106.548 12.1333 106.883 12.2142 107.177 12.3821C107.47 12.5499 107.71 12.7979 107.867 13.0969H107.947V10.1292H109.013V17.642H107.992V16.7883H107.907C107.737 17.0853 107.489 17.3302 107.19 17.4963C106.891 17.6625 106.552 17.7437 106.21 17.7311C104.836 17.7311 103.967 16.6495 103.967 14.9379ZM105.069 14.9379C105.069 16.084 105.609 16.7737 106.513 16.7737C107.411 16.7737 107.967 16.0741 107.967 14.9426C107.967 13.8165 107.406 13.1069 106.513 13.1069C105.615 13.1069 105.069 13.8012 105.069 14.9379Z" fill="white"/>
<path d="M110.455 16.114C110.455 15.1413 111.179 14.5806 112.465 14.5009L113.928 14.4165V13.9501C113.928 13.3794 113.551 13.0571 112.822 13.0571C112.227 13.0571 111.814 13.2757 111.696 13.6577H110.663C110.772 12.7296 111.645 12.1343 112.871 12.1343C114.226 12.1343 114.99 12.8087 114.99 13.9501V17.6421H113.963V16.8827H113.879C113.708 17.1551 113.467 17.3772 113.182 17.5262C112.897 17.6753 112.577 17.746 112.256 17.7311C112.029 17.7547 111.8 17.7305 111.583 17.6601C111.366 17.5896 111.166 17.4745 110.997 17.3222C110.827 17.1698 110.691 16.9836 110.598 16.7755C110.504 16.5674 110.456 16.342 110.455 16.114ZM113.928 15.6522V15.2005L112.609 15.2849C111.865 15.3347 111.527 15.5878 111.527 16.0641C111.527 16.5505 111.949 16.8335 112.529 16.8335C112.699 16.8507 112.871 16.8335 113.034 16.783C113.197 16.7325 113.349 16.6497 113.479 16.5395C113.61 16.4293 113.717 16.2939 113.794 16.1415C113.871 15.9891 113.917 15.8227 113.928 15.6522Z" fill="white"/>
<path d="M116.66 12.2388H117.686V13.0972H117.766C117.901 12.7889 118.129 12.5304 118.418 12.3579C118.707 12.1853 119.043 12.1072 119.379 12.1345C119.642 12.1147 119.906 12.1543 120.151 12.2505C120.397 12.3466 120.617 12.4967 120.797 12.6897C120.977 12.8827 121.11 13.1137 121.189 13.3655C121.267 13.6172 121.288 13.8834 121.249 14.1442V17.6422H120.183V14.412C120.183 13.5437 119.805 13.1118 119.017 13.1118C118.838 13.1035 118.66 13.1339 118.494 13.2009C118.329 13.2679 118.179 13.3699 118.057 13.5C117.934 13.63 117.841 13.7851 117.784 13.9544C117.727 14.1238 117.707 14.3035 117.726 14.4812V17.6423H116.66V12.2388Z" fill="white"/>
<path d="M124.874 12.1343C126.089 12.1343 126.883 12.6997 126.988 13.6524H125.965C125.866 13.2558 125.478 13.0026 124.874 13.0026C124.278 13.0026 123.826 13.2851 123.826 13.7069C123.826 14.0297 124.099 14.2331 124.685 14.3673L125.583 14.5753C126.61 14.8138 127.092 15.2556 127.092 16.0495C127.092 17.0667 126.144 17.7464 124.854 17.7464C123.568 17.7464 122.73 17.1657 122.635 16.2083H123.703C123.795 16.4362 123.961 16.6265 124.174 16.7488C124.387 16.8711 124.635 16.9183 124.878 16.8827C125.543 16.8827 126.015 16.5851 126.015 16.1532C126.015 15.8309 125.762 15.6224 125.22 15.4934L124.278 15.2749C123.25 15.0317 122.775 14.5706 122.775 13.7667C122.775 12.8087 123.652 12.1343 124.874 12.1343Z" fill="white"/>
<path d="M42.77 21.6802H45.0013V36.5823H42.77V21.6802Z" fill="white"/>
<path d="M47.6895 27.1329L48.9082 21.6802H51.0762L49.5996 27.1329H47.6895Z" fill="white"/>
<path d="M59.5079 32.5546H53.8278L52.4637 36.5823H50.0579L55.4379 21.6802H57.9375L63.3176 36.5823H60.8708L59.5079 32.5546ZM54.4161 30.696H58.9185L56.6989 24.1587H56.6368L54.4161 30.696Z" fill="white"/>
<path d="M74.9357 31.1509C74.9357 34.5271 73.1286 36.6962 70.4017 36.6962C69.7109 36.7324 69.0239 36.5732 68.4194 36.2371C67.8148 35.9009 67.3171 35.4013 66.9833 34.7954H66.9317V40.1767H64.7017V25.7175H66.8603V27.5245H66.9013C67.2504 26.9216 67.7565 26.4245 68.3656 26.0863C68.9748 25.7481 69.6643 25.5814 70.3606 25.6038C73.1181 25.6038 74.9357 27.7835 74.9357 31.1509ZM72.6435 31.1509C72.6435 28.9507 71.5068 27.5046 69.7724 27.5046C68.0685 27.5046 66.9224 28.9812 66.9224 31.1509C66.9224 33.34 68.0685 34.806 69.7724 34.806C71.5068 34.806 72.6435 33.3704 72.6435 31.1509Z" fill="white"/>
<path d="M86.8928 31.1509C86.8928 34.5271 85.0858 36.6962 82.3588 36.6962C81.6681 36.7324 80.9811 36.5732 80.3765 36.2371C79.772 35.9009 79.2743 35.4013 78.9405 34.7954H78.8889V40.1767H76.6594V25.7175H78.8174V27.5245H78.8585C79.2076 26.9216 79.7137 26.4245 80.3229 26.0863C80.932 25.7481 81.6215 25.5814 82.3178 25.6038C85.0752 25.6038 86.8928 27.7835 86.8928 31.1509ZM84.6006 31.1509C84.6006 28.9507 83.4639 27.5046 81.7295 27.5046C80.0256 27.5046 78.8795 28.9812 78.8795 31.1509C78.8795 33.34 80.0256 34.806 81.7295 34.806C83.4639 34.806 84.6006 33.3704 84.6006 31.1509Z" fill="white"/>
<path d="M94.796 32.4305C94.9613 33.9083 96.3968 34.8785 98.3585 34.8785C100.238 34.8785 101.591 33.9082 101.591 32.5758C101.591 31.4191 100.775 30.7266 98.8437 30.252L96.9124 29.7861C94.1761 29.1253 92.9057 27.8456 92.9057 25.769C92.9057 23.1979 95.1464 21.4319 98.328 21.4319C101.477 21.4319 103.635 23.1979 103.708 25.769H101.457C101.322 24.2819 100.093 23.3842 98.2964 23.3842C96.4999 23.3842 95.2706 24.2924 95.2706 25.6143C95.2706 26.6678 96.0558 27.2878 97.9765 27.7623L99.6183 28.1654C102.676 28.8885 103.946 30.1172 103.946 32.2969C103.946 35.0848 101.725 36.8309 98.1933 36.8309C94.8886 36.8309 92.6573 35.1258 92.5132 32.4305L94.796 32.4305Z" fill="white"/>
<path d="M108.76 23.1462V25.7173H110.826V27.4834H108.76V33.4734C108.76 34.4039 109.174 34.8375 110.082 34.8375C110.327 34.8332 110.572 34.816 110.816 34.7859V36.5413C110.407 36.6176 109.992 36.6522 109.577 36.6445C107.377 36.6445 106.519 35.8183 106.519 33.7112V27.4834H104.94V25.7173H106.519V23.1462H108.76Z" fill="white"/>
<path d="M112.021 31.1507C112.021 27.7318 114.035 25.5837 117.174 25.5837C120.324 25.5837 122.328 27.7317 122.328 31.1507C122.328 34.5785 120.335 36.7171 117.174 36.7171C114.015 36.7171 112.021 34.5784 112.021 31.1507ZM120.056 31.1507C120.056 28.8052 118.981 27.4212 117.174 27.4212C115.367 27.4212 114.294 28.8158 114.294 31.1507C114.294 33.505 115.367 34.8785 117.174 34.8785C118.981 34.8785 120.056 33.505 120.056 31.1507Z" fill="white"/>
<path d="M124.167 25.7174H126.294V27.5666H126.345C126.489 26.989 126.828 26.4786 127.303 26.1212C127.779 25.7637 128.364 25.581 128.959 25.6037C129.216 25.6028 129.472 25.6307 129.723 25.6869V27.7728C129.398 27.6737 129.06 27.6281 128.721 27.638C128.397 27.6249 128.074 27.6821 127.774 27.8056C127.474 27.9291 127.204 28.116 126.984 28.3536C126.763 28.5911 126.596 28.8736 126.495 29.1816C126.393 29.4897 126.36 29.816 126.397 30.1382V36.5824H124.167L124.167 25.7174Z" fill="white"/>
<path d="M140.004 33.3914C139.704 35.3636 137.783 36.7171 135.325 36.7171C132.165 36.7171 130.203 34.5996 130.203 31.2023C130.203 27.7939 132.175 25.5837 135.232 25.5837C138.237 25.5837 140.128 27.6486 140.128 30.9433V31.7074H132.454V31.8421C132.419 32.242 132.469 32.6448 132.601 33.0238C132.733 33.4028 132.945 33.7493 133.221 34.0404C133.498 34.3314 133.833 34.5604 134.204 34.7119C134.576 34.8635 134.976 34.9342 135.377 34.9195C135.904 34.9689 136.433 34.8468 136.885 34.5715C137.337 34.2961 137.688 33.8822 137.886 33.3913L140.004 33.3914ZM132.465 30.1488H137.896C137.917 29.7892 137.862 29.4294 137.737 29.0919C137.611 28.7544 137.417 28.4464 137.167 28.1875C136.916 27.9285 136.615 27.724 136.282 27.5869C135.949 27.4498 135.592 27.383 135.232 27.3907C134.868 27.3886 134.508 27.4584 134.172 27.5961C133.836 27.7339 133.531 27.9368 133.274 28.1932C133.016 28.4496 132.812 28.7545 132.674 29.0901C132.535 29.4257 132.464 29.7856 132.465 30.1488Z" fill="white"/>
</g>
<defs>
<clipPath id="clip0_107_1936">
<rect width="151.809" height="48" fill="white" transform="translate(0.532227)"/>
</clipPath>
</defs>
</svg>
