<svg width="162" height="48" viewBox="0 0 162 48" fill="none" xmlns="http://www.w3.org/2000/svg">
<g clip-path="url(#clip0_107_1975)">
<mask id="mask0_107_1975" style="mask-type:luminance" maskUnits="userSpaceOnUse" x="0" y="0" width="162" height="48">
<path d="M162 0H0.00219727V48H162V0Z" fill="white"/>
</mask>
<g mask="url(#mask0_107_1975)">
<mask id="mask1_107_1975" style="mask-type:luminance" maskUnits="userSpaceOnUse" x="0" y="0" width="162" height="48">
<path d="M162 0H0.00219727V48H162V0Z" fill="white"/>
</mask>
<g mask="url(#mask1_107_1975)">
<path d="M155.999 48H6.00314C2.703 48 0.00219727 45.2992 0.00219727 41.9991V6.00094C0.00219727 2.7008 2.703 0 6.00314 0H156.002C159.302 0 162.003 2.7008 162.003 6.00094V42.0016C162.003 45.3017 159.302 48.0025 156.002 48.0025" fill="#12100B"/>
<path d="M155.999 0.960451C158.778 0.960451 161.04 3.2224 161.04 6.00094V42.0016C161.04 44.7801 158.778 47.0421 155.999 47.0421H6.00314C3.2246 47.0421 0.962649 44.7801 0.962649 42.0016V6.00094C0.962649 3.21989 3.22209 0.960451 6.00314 0.960451H156.002H155.999ZM155.999 0H6.00314C2.703 0 0.00219727 2.7008 0.00219727 6.00094V42.0016C0.00219727 45.3017 2.703 48.0025 6.00314 48.0025H156.002C159.302 48.0025 162.003 45.3017 162.003 42.0016V6.00094C162 2.7008 159.299 0 155.999 0Z" fill="#AFACAB"/>
<path d="M81.7634 26.1002C78.9422 26.1002 76.6401 28.2468 76.6401 31.2059C76.6401 34.165 78.9397 36.309 81.7634 36.309C84.5871 36.309 86.8866 34.1424 86.8866 31.2059C86.8866 28.2693 84.5871 26.1002 81.7634 26.1002ZM81.7634 34.2979C80.2161 34.2979 78.882 33.0214 78.882 31.2059C78.882 29.3903 80.2161 28.1113 81.7634 28.1113C83.3106 28.1113 84.6422 29.3677 84.6422 31.2059C84.6422 33.044 83.3081 34.2979 81.7634 34.2979ZM70.5865 26.1002C67.7654 26.1002 65.4633 28.2468 65.4633 31.2059C65.4633 34.165 67.7629 36.309 70.5865 36.309C73.4102 36.309 75.7098 34.1424 75.7098 31.2059C75.7098 28.2693 73.4077 26.1002 70.5865 26.1002ZM70.5865 34.2979C69.0418 34.2979 67.7077 33.0214 67.7077 31.2059C67.7077 29.3903 69.0418 28.1113 70.5865 28.1113C72.1313 28.1113 73.4679 29.3677 73.4679 31.2059C73.4679 33.044 72.1338 34.2979 70.5865 34.2979ZM57.2932 27.6675V29.8316H62.4741C62.3186 31.0504 61.9149 31.9381 61.2955 32.5575C60.5407 33.3123 59.362 34.1424 57.2932 34.1424C54.1034 34.1424 51.6082 31.572 51.6082 28.3822C51.6082 25.1924 54.1009 22.622 57.2932 22.622C59.0135 22.622 60.2698 23.2966 61.1977 24.1667L62.7249 22.6395C61.4284 21.4032 59.7081 20.4553 57.2932 20.4553C52.9248 20.4553 49.251 24.0138 49.251 28.3822C49.251 32.7506 52.9248 36.309 57.2932 36.309C59.6504 36.309 61.4284 35.5342 62.8227 34.0847C64.2521 32.6553 64.6984 30.6441 64.6984 29.0191C64.6984 28.5176 64.6608 28.0537 64.5831 27.6675H57.2957H57.2932ZM111.663 29.3476C111.236 28.2066 109.942 26.1002 107.294 26.1002C104.646 26.1002 102.482 28.169 102.482 31.2059C102.482 34.0672 104.646 36.309 107.545 36.309C109.885 36.309 111.236 34.8796 111.798 34.0471L110.058 32.886C109.476 33.7361 108.686 34.2979 107.545 34.2979C106.404 34.2979 105.592 33.7763 105.07 32.7531L111.893 29.9294L111.663 29.3502V29.3476ZM104.704 31.0504C104.646 29.0768 106.231 28.0737 107.372 28.0737C108.262 28.0737 109.017 28.5176 109.268 29.1571L104.706 31.0529L104.704 31.0504ZM99.1543 35.9981H101.396V20.997H99.1543V35.9981ZM95.4805 27.2412H95.4028C94.9013 26.6418 93.9333 26.1002 92.717 26.1002C90.1642 26.1002 87.827 28.3421 87.827 31.2234C87.827 34.1048 90.1667 36.3065 92.717 36.3065C93.9358 36.3065 94.9013 35.7649 95.4028 35.1455H95.4805V35.8802C95.4805 37.8337 94.4373 38.8769 92.7547 38.8769C91.3829 38.8769 90.5303 37.8914 90.1843 37.0614L88.2308 37.8738C88.79 39.228 90.2796 40.8906 92.7547 40.8906C95.3827 40.8906 97.6071 39.3434 97.6071 35.5743V26.4111H95.4805V27.2437V27.2412ZM92.9101 34.2979C91.3629 34.2979 90.0689 33.0039 90.0689 31.2259C90.0689 29.448 91.3629 28.1139 92.9101 28.1139C94.4574 28.1139 95.636 29.4279 95.636 31.2259C95.636 33.0239 94.4373 34.2979 92.9101 34.2979ZM122.168 20.9995H116.804V36.0006H119.04V30.3181H122.168C124.65 30.3181 127.088 28.5201 127.088 25.6588C127.088 22.7975 124.648 20.9995 122.168 20.9995ZM122.225 28.2292H119.04V23.0859H122.225C123.9 23.0859 124.851 24.4727 124.851 25.6563C124.851 26.8399 123.9 28.2267 122.225 28.2267M136.063 26.0726C134.443 26.0726 132.763 26.7873 132.068 28.3671L134.057 29.1972C134.48 28.3671 135.273 28.0963 136.103 28.0963C137.261 28.0963 138.438 28.7909 138.458 30.0247V30.1802C138.051 29.9495 137.184 29.6009 136.123 29.6009C133.981 29.6009 131.8 30.777 131.8 32.9788C131.8 34.9875 133.558 36.2789 135.524 36.2789C137.031 36.2789 137.858 35.6044 138.38 34.8119H138.458V35.9705H140.619V30.2178C140.619 27.5546 138.633 26.0701 136.065 26.0701M135.794 34.2903C135.06 34.2903 134.037 33.9242 134.037 33.0164C134.037 31.8579 135.31 31.4165 136.411 31.4165C137.394 31.4165 137.858 31.6297 138.458 31.918C138.285 33.3073 137.088 34.2928 135.794 34.2928M148.493 26.3986L145.926 32.9036H145.848L143.185 26.3986H140.772L144.767 35.489L142.49 40.5446H144.825L150.981 26.3986H148.491H148.493ZM128.326 35.9956H130.566V20.9945H128.326V35.9956Z" fill="white"/>
<path d="M24.8637 23.3091L12.0869 36.8683C12.0869 36.8683 12.0869 36.8733 12.0869 36.8758C12.4781 38.3479 13.8222 39.4312 15.4197 39.4312C16.0591 39.4312 16.656 39.2582 17.17 38.9572L17.2102 38.9322L31.5919 30.6342L24.8612 23.3066L24.8637 23.3091Z" fill="#E43629"/>
<path d="M37.7884 20.9994L37.7758 20.9919L31.5667 17.3933L24.5728 23.6174L31.5918 30.634L37.7658 27.0705C38.8491 26.4837 39.5839 25.3427 39.5839 24.0287C39.5839 22.7147 38.8592 21.5862 37.7859 20.9994" fill="#F9BD00"/>
<path d="M12.0869 11.1316C12.0091 11.415 11.969 11.7134 11.969 12.0193V35.9805C11.969 36.2889 12.0091 36.5848 12.0869 36.8682L25.3 23.6551L12.0843 11.1316H12.0869Z" fill="#587DBE"/>
<path d="M24.9565 24.0013L31.5693 17.391L17.2051 9.06287C16.6835 8.7494 16.0742 8.56885 15.4222 8.56885C13.8273 8.56885 12.4806 9.65469 12.0869 11.1292C12.0869 11.1292 12.0869 11.1292 12.0869 11.1317L24.959 24.0013H24.9565Z" fill="#30A043"/>
</g>
<path d="M50.1438 8.28522H52.5336C53.306 8.28522 53.9806 8.4407 54.5549 8.75416C55.1291 9.06763 55.5705 9.50648 55.8814 10.0757C56.1924 10.6425 56.3454 11.292 56.3454 12.0217C56.3454 12.7514 56.1899 13.4009 55.8814 13.9677C55.5705 14.5344 55.1291 14.9758 54.5549 15.2892C53.9806 15.6027 53.3085 15.7582 52.5336 15.7582H50.1438V8.28271V8.28522ZM52.5036 14.6749C53.3537 14.6749 54.0132 14.4391 54.4821 13.9702C54.9511 13.5013 55.1868 12.8518 55.1868 12.0242C55.1868 11.1967 54.9511 10.5472 54.4821 10.0782C54.0132 9.60929 53.3537 9.37357 52.5036 9.37357H51.2923V14.6774H52.5036V14.6749Z" fill="white"/>
<path d="M57.8374 8.2854H58.9859V15.7609H57.8374V8.2854Z" fill="white"/>
<path d="M61.386 15.3846C60.8919 15.0235 60.5484 14.5144 60.3528 13.8599L61.4386 13.4211C61.549 13.8373 61.7496 14.1809 62.0329 14.4442C62.3188 14.71 62.6624 14.8404 63.0661 14.8404C63.4423 14.8404 63.7608 14.7426 64.0216 14.547C64.2824 14.3514 64.4128 14.0831 64.4128 13.742C64.4128 13.4286 64.2974 13.1703 64.0692 12.9646C63.8385 12.759 63.4423 12.5584 62.878 12.3653L62.4091 12.1973C61.9 12.0167 61.4787 11.7635 61.1402 11.44C60.8017 11.1165 60.6336 10.6877 60.6336 10.151C60.6336 9.78237 60.734 9.44132 60.9321 9.12786C61.1302 8.8144 61.4085 8.56864 61.7671 8.38558C62.1257 8.20502 62.532 8.11475 62.9834 8.11475C63.6304 8.11475 64.1495 8.27273 64.5381 8.5887C64.9268 8.90467 65.1927 9.26077 65.3306 9.65949L64.2974 10.0983C64.2272 9.84757 64.0817 9.63191 63.8586 9.45135C63.6354 9.2708 63.347 9.18052 62.9909 9.18052C62.6348 9.18052 62.3615 9.2708 62.1232 9.45135C61.8875 9.63191 61.7696 9.86262 61.7696 10.141C61.7696 10.3993 61.875 10.6124 62.0881 10.7829C62.3013 10.9535 62.6298 11.1165 63.0736 11.2694L63.5551 11.4375C64.1946 11.6606 64.6886 11.949 65.0372 12.3051C65.3857 12.6612 65.5588 13.1327 65.5588 13.7245C65.5588 14.211 65.4359 14.6197 65.1876 14.9508C64.9394 15.2818 64.6234 15.5275 64.2372 15.688C63.851 15.8485 63.4548 15.9288 63.0511 15.9288C62.4317 15.9288 61.875 15.7482 61.3809 15.3871L61.386 15.3846Z" fill="white"/>
<path d="M67.0657 8.2854H69.6336C70.0799 8.2854 70.4887 8.3832 70.8598 8.5788C71.231 8.7744 71.5269 9.04523 71.7476 9.39381C71.9657 9.74238 72.0761 10.1361 72.0761 10.5724C72.0761 11.0088 71.9657 11.405 71.7476 11.751C71.5269 12.0996 71.2335 12.3705 70.8598 12.5661C70.4862 12.7617 70.0774 12.8595 69.6336 12.8595H68.2142V15.7609H67.0657V8.2854ZM69.6662 11.7711C70.0498 11.7711 70.3558 11.6507 70.589 11.41C70.8222 11.1693 70.9376 10.8909 70.9376 10.5699C70.9376 10.2489 70.8222 9.97058 70.589 9.72984C70.3558 9.4891 70.0473 9.36873 69.6662 9.36873H68.2142V11.7686H69.6662V11.7711Z" fill="white"/>
<path d="M74.9475 15.4048C74.3557 15.0563 73.8917 14.5848 73.5532 13.9905C73.2146 13.3962 73.0466 12.7391 73.0466 12.0219C73.0466 11.3047 73.2146 10.6502 73.5532 10.0534C73.8917 9.45905 74.3557 8.98761 74.9475 8.63903C75.5393 8.29046 76.1963 8.11743 76.921 8.11743C77.6458 8.11743 78.3003 8.29046 78.8896 8.63903C79.4764 8.98761 79.9403 9.45905 80.2789 10.0534C80.6174 10.6477 80.7854 11.3047 80.7854 12.0219C80.7854 12.7391 80.6174 13.3936 80.2789 13.9905C79.9403 14.5848 79.4789 15.0563 78.8896 15.4048C78.3003 15.7534 77.6458 15.9264 76.921 15.9264C76.1963 15.9264 75.5393 15.7534 74.9475 15.4048ZM78.2928 14.482C78.7065 14.2412 79.035 13.9077 79.2733 13.4789C79.514 13.0501 79.6344 12.5661 79.6344 12.0219C79.6344 11.4778 79.514 10.9938 79.2733 10.565C79.0325 10.1361 78.7065 9.80261 78.2928 9.56187C77.879 9.32113 77.4201 9.20076 76.921 9.20076C76.422 9.20076 75.9631 9.32113 75.5493 9.56187C75.1356 9.80261 74.807 10.1361 74.5688 10.565C74.3281 10.9938 74.2077 11.4778 74.2077 12.0219C74.2077 12.5661 74.3281 13.0501 74.5688 13.4789C74.8095 13.9077 75.1356 14.2412 75.5493 14.482C75.9631 14.7227 76.422 14.8431 76.921 14.8431C77.4201 14.8431 77.879 14.7227 78.2928 14.482Z" fill="white"/>
<path d="M82.2649 8.2854H83.6216L87.0045 13.7773H87.0671L87.0045 12.3353V8.2854H88.143V15.7609H86.9518L83.4034 9.98813H83.3407L83.4034 11.4301V15.7634H82.2649V8.28791V8.2854Z" fill="white"/>
<path d="M90.0339 8.2854H91.1825V15.7609H90.0339V8.2854Z" fill="white"/>
<path d="M93.0608 8.2854H95.8594C96.2556 8.2854 96.6242 8.37317 96.9653 8.5462C97.3063 8.71923 97.5772 8.95747 97.7753 9.2609C97.9734 9.56433 98.0737 9.90036 98.0737 10.269C98.0737 10.6376 97.9809 10.9586 97.7979 11.2345C97.6123 11.5103 97.369 11.721 97.0606 11.8664V11.9191C97.4493 12.052 97.7602 12.2701 97.9909 12.5761C98.2191 12.882 98.3345 13.2431 98.3345 13.6619C98.3345 14.0807 98.2292 14.4368 98.016 14.7528C97.8029 15.0687 97.5195 15.317 97.1609 15.4951C96.8023 15.6731 96.4111 15.7609 95.9873 15.7609H93.0633V8.2854H93.0608ZM95.8067 11.4276C96.1553 11.4276 96.4337 11.3222 96.6418 11.1091C96.8499 10.8959 96.9553 10.6527 96.9553 10.3743C96.9553 10.096 96.8524 9.85522 96.6468 9.64959C96.4412 9.44396 96.1754 9.34114 95.8469 9.34114H94.2068V11.4301H95.8042L95.8067 11.4276ZM95.9848 14.6951C96.3459 14.6951 96.6368 14.5848 96.8575 14.3666C97.0756 14.1484 97.186 13.8851 97.186 13.5792C97.186 13.2732 97.0731 13.0074 96.8474 12.7867C96.6217 12.5635 96.3208 12.4532 95.9447 12.4532H94.2118V14.6976H95.9873L95.9848 14.6951Z" fill="white"/>
<path d="M99.8464 8.2854H100.995V14.675H104.21V15.7609H99.8464V8.2854Z" fill="white"/>
<path d="M105.421 8.2854H109.953V9.37124H106.57V11.4802H109.619V12.5661H106.57V14.675H109.953V15.7609H105.421V8.2854Z" fill="white"/>
<path d="M114.326 15.3846C113.832 15.0235 113.488 14.5144 113.293 13.8599L114.379 13.4211C114.489 13.8373 114.69 14.1809 114.973 14.4442C115.259 14.71 115.602 14.8404 116.006 14.8404C116.382 14.8404 116.701 14.7426 116.961 14.547C117.222 14.3514 117.353 14.0831 117.353 13.742C117.353 13.4286 117.237 13.1703 117.009 12.9646C116.778 12.759 116.382 12.5584 115.818 12.3653L115.349 12.1973C114.84 12.0167 114.419 11.7635 114.08 11.44C113.742 11.1165 113.574 10.6877 113.574 10.151C113.574 9.78237 113.674 9.44132 113.872 9.12786C114.07 8.8144 114.348 8.56864 114.707 8.38558C115.066 8.20502 115.472 8.11475 115.923 8.11475C116.57 8.11475 117.089 8.27273 117.478 8.5887C117.867 8.90467 118.133 9.26077 118.271 9.65949L117.237 10.0983C117.167 9.84757 117.022 9.63191 116.799 9.45135C116.575 9.2708 116.287 9.18052 115.931 9.18052C115.575 9.18052 115.301 9.2708 115.063 9.45135C114.827 9.63191 114.707 9.86262 114.707 10.141C114.707 10.3993 114.812 10.6124 115.026 10.7829C115.239 10.9535 115.567 11.1165 116.011 11.2694L116.49 11.4375C117.13 11.6606 117.624 11.949 117.972 12.3051C118.321 12.6612 118.494 13.1327 118.494 13.7245C118.494 14.211 118.371 14.6197 118.123 14.9508C117.874 15.2818 117.558 15.5275 117.172 15.688C116.786 15.8485 116.39 15.9288 115.986 15.9288C115.367 15.9288 114.81 15.7482 114.316 15.3871L114.326 15.3846Z" fill="white"/>
<path d="M121.18 15.55C120.751 15.2993 120.42 14.9457 120.186 14.4843C119.953 14.0254 119.838 13.4912 119.838 12.8869V8.28271H120.976V12.9496C120.976 13.5138 121.122 13.9702 121.415 14.3163C121.709 14.6648 122.122 14.8379 122.657 14.8379C123.191 14.8379 123.617 14.6648 123.91 14.3163C124.204 13.9677 124.349 13.5113 124.349 12.9496V8.28271H125.488V12.8869C125.488 13.4862 125.372 14.0153 125.144 14.4742C124.913 14.9332 124.587 15.2892 124.164 15.545C123.74 15.7983 123.238 15.9262 122.659 15.9262C122.08 15.9262 121.611 15.8008 121.182 15.55H121.18Z" fill="white"/>
<path d="M127.271 8.2854H129.891C130.343 8.2854 130.751 8.3832 131.118 8.5788C131.484 8.7744 131.772 9.04523 131.985 9.39381C132.198 9.74238 132.304 10.1361 132.304 10.5724C132.304 11.074 132.141 11.5178 131.817 11.904C131.494 12.2902 131.087 12.5485 130.601 12.6814L130.591 12.7341L132.647 15.6982V15.7609H131.321L129.327 12.8269H128.419V15.7609H127.271V8.2854ZM129.859 11.7711C130.22 11.7711 130.526 11.6558 130.771 11.4276C131.017 11.1968 131.143 10.9085 131.143 10.5599C131.143 10.2389 131.03 9.96055 130.804 9.71981C130.578 9.47907 130.277 9.3587 129.901 9.3587H128.419V11.7711H129.861H129.859Z" fill="white"/>
</g>
</g>
<defs>
<clipPath id="clip0_107_1975">
<rect width="161.998" height="48" fill="white" transform="translate(0.00219727)"/>
</clipPath>
</defs>
</svg>
